40000000054496_20160213-082528/0000775000175000017500000000000012724061607014330 5ustar  dlpiercedlpierce40000000054496_20160213-082528/manifest-md5.txt0000600000175000017500000000261512724061060017345 0ustar  dlpiercedlpierce22b37d76c597ed5c9a7a643da4359d9b  data/MDPI_40000000054496.xml
f4c3088d835d35d8741551cf4e8977f0  data/MDPI_40000000054496_01_access.mp4
8dbfa18eef63330114225cd31f1950e2  data/MDPI_40000000054496_01_pres.eqm
a0f9e4c05b1307788734229c3023f191  data/MDPI_40000000054496_01_pres.wav
4d5642bcc170165ea36b0feb0e1523c3  data/MDPI_40000000054496_01_pres.wmf
7892355550c1105c0144d95ec7d3820f  data/MDPI_40000000054496_01_prod.wav
fa40a4bc057567044fa68bfbc6eee2df  data/generated/MDPI_40000000054496_01_access_ffprobe.xml
1e2f929c7cc8df1da9e9ab0b931f6867  data/generated/MDPI_40000000054496_01_high.mp4
2a2d82dc3ab0d027f8886df4e0930d39  data/generated/MDPI_40000000054496_01_high_ffprobe.xml
47c0975406cc526c987f47cf2adef270  data/generated/MDPI_40000000054496_01_med.mp4
2a2d82dc3ab0d027f8886df4e0930d39  data/generated/MDPI_40000000054496_01_med_ffprobe.xml
363dba602436c77ef2fcac4c1e9bca0c  data/generated/MDPI_40000000054496_01_pres_ffprobe.xml
e3d314ca641aa6d2e793f0ec87d34c21  data/generated/MDPI_40000000054496_01_prod_audioinspector_bad.xml
2a2d82dc3ab0d027f8886df4e0930d39  data/generated/MDPI_40000000054496_01_prod_ffprobe.xml
24af985acef660e2a1e2f2d42919b77b  data/generated/MDPI_40000000054496_group.txt
43c6dc639c25070ac2b094eca5d42a75  data/generated/MDPI_40000000054496_mods.xml
d3c19b3a6ebf715786d023d1377e1c3e  data/generated/MDPI_40000000054496_pod.xml
274e2608f4791eba5768e2890846e42a  data/generated/README.txt
40000000054496_20160213-082528/MDPI_40000000054496_group.txt0000600000175000017500000000006312724061060020453 0ustar  dlpiercedlpierceGroup: GR00064823
Total: 1
1/1	MDPI_40000000054496
40000000054496_20160213-082528/MDPI_40000000054496_purl.yaml0000664000175000017500000002223412724061060020442 0ustar  dlpiercedlpierce---
MDPI_40000000054496_01_pres.eqm:
     ffprobe: MDPI_40000000054496_01_pres_ffprobe.xml
     purl: https://purl.dlib.indiana.edu/iudl/hydradam2/MDPI/40000000054496/20160213-082528/MDPI_40000000054496_01_pres.eqm
MDPI_40000000054496_01_pres.wmf:
     ffprobe: MDPI_40000000054496_01_pres_ffprobe.xml
     purl: https://purl.dlib.indiana.edu/iudl/hydradam2/MDPI/40000000054496/20160213-082528/MDPI_40000000054496_01_pres.wmf
MDPI_40000000613010_01_access.mp4:
     ffprobe: MDPI_40000000613010_01_access_ffprobe.xml
     purl: https://purl.dlib.indiana.edu/iudl/hydradam2/MDPI/40000000613010/20160208-165803/MDPI_40000000613010_01_access.mp4
MDPI_40000000692030_01_access.mp4:
     ffprobe: MDPI_40000000692030_01_access_ffprobe.xml
     purl: https://purl.dlib.indiana.edu/iudl/hydradam2/MDPI/40000000692030/20160208-171057/MDPI_40000000692030_01_access.mp4
MDPI_40000000543944_01_pres.wav:
     ffprobe: MDPI_40000000543944_01_pres_ffprobe.xml
     purl: https://purl.dlib.indiana.edu/iudl/hydradam2/MDPI/40000000543944/20160208-163625/MDPI_40000000543944_01_pres.wav
MDPI_40000000613036_01_pres.wav:
     ffprobe: MDPI_40000000613036_01_pres_ffprobe.xml
     purl: https://purl.dlib.indiana.edu/iudl/hydradam2/MDPI/40000000613036/20160208-165808/MDPI_40000000613036_01_pres.wav
MDPI_40000000300048_01_mezz.mov:
     ffprobe: MDPI_40000000300048_01_mezz_ffprobe.xml
     purl: https://purl.dlib.indiana.edu/iudl/hydradam2/MDPI/40000000300048/20160213-082926/MDPI_40000000300048_01_mezz.mov
MDPI_40000001192451_02_prod.wav:
     ffprobe: MDPI_40000001192451_02_prod_ffprobe.xml
     purl: https://purl.dlib.indiana.edu/iudl/hydradam2/MDPI/40000001192451/20160208-174611/MDPI_40000001192451_02_prod.wav
MDPI_40000000577553_01_access.mp4:
     ffprobe: MDPI_40000000577553_01_access_ffprobe.xml
     purl: https://purl.dlib.indiana.edu/iudl/hydradam2/MDPI/40000000577553/20160208-165053/MDPI_40000000577553_01_access.mp4
MDPI_40000000613028_01_pres.wav:
     ffprobe: MDPI_40000000613028_01_pres_ffprobe.xml
     purl: https://purl.dlib.indiana.edu/iudl/hydradam2/MDPI/40000000613028/20160208-165806/MDPI_40000000613028_01_pres.wav
MDPI_40000001229337_02_pres.wav:
     ffprobe: MDPI_40000001229337_02_pres_ffprobe.xml
     purl: https://purl.dlib.indiana.edu/iudl/hydradam2/MDPI/40000001229337/20160208-175337/MDPI_40000001229337_02_pres.wav
MDPI_40000000692030_01_pres.mkv:
     ffprobe: MDPI_40000000692030_01_pres_ffprobe.xml
     purl: https://purl.dlib.indiana.edu/iudl/hydradam2/MDPI/40000000692030/20160208-171057/MDPI_40000000692030_01_pres.mkv
MDPI_40000001192451_01_prod.wav:
     ffprobe: MDPI_40000001192451_01_prod_ffprobe.xml
     purl: https://purl.dlib.indiana.edu/iudl/hydradam2/MDPI/40000001192451/20160208-174611/MDPI_40000001192451_01_prod.wav
MDPI_40000001192451_01_access.mp4:
     ffprobe: MDPI_40000001192451_01_access_ffprobe.xml
     purl: https://purl.dlib.indiana.edu/iudl/hydradam2/MDPI/40000001192451/20160208-174611/MDPI_40000001192451_01_access.mp4
MDPI_40000000054496_01_pres.wav:
     ffprobe: MDPI_40000000054496_01_pres_ffprobe.xml
     purl: https://purl.dlib.indiana.edu/iudl/hydradam2/MDPI/40000000054496/20160213-082528/MDPI_40000000054496_01_pres.wav
MDPI_40000001192451_02_access.mp4:
     ffprobe: MDPI_40000001192451_02_access_ffprobe.xml
     purl: https://purl.dlib.indiana.edu/iudl/hydradam2/MDPI/40000001192451/20160208-174611/MDPI_40000001192451_02_access.mp4
MDPI_40000001192451_02_pres.wav:
     ffprobe: MDPI_40000001192451_02_pres_ffprobe.xml
     purl: https://purl.dlib.indiana.edu/iudl/hydradam2/MDPI/40000001192451/20160208-174611/MDPI_40000001192451_02_pres.wav
MDPI_40000000543951_01_access.mp4:
     ffprobe: MDPI_40000000543951_01_access_ffprobe.xml
     purl: https://purl.dlib.indiana.edu/iudl/hydradam2/MDPI/40000000543951/20160208-163626/MDPI_40000000543951_01_access.mp4
MDPI_40000000692030_01_mezz.mov:
     ffprobe: MDPI_40000000692030_01_mezz_ffprobe.xml
     purl: https://purl.dlib.indiana.edu/iudl/hydradam2/MDPI/40000000692030/20160208-171057/MDPI_40000000692030_01_mezz.mov
MDPI_40000001229337_01_access.mp4:
     ffprobe: MDPI_40000001229337_01_access_ffprobe.xml
     purl: https://purl.dlib.indiana.edu/iudl/hydradam2/MDPI/40000001229337/20160208-175337/MDPI_40000001229337_01_access.mp4
MDPI_40000000543944_01_prod.wav:
     ffprobe: MDPI_40000000543944_01_prod_ffprobe.xml
     purl: https://purl.dlib.indiana.edu/iudl/hydradam2/MDPI/40000000543944/20160208-163625/MDPI_40000000543944_01_prod.wav
MDPI_40000000577553_02_pres.wav:
     ffprobe: MDPI_40000000577553_02_pres_ffprobe.xml
     purl: https://purl.dlib.indiana.edu/iudl/hydradam2/MDPI/40000000577553/20160208-165053/MDPI_40000000577553_02_pres.wav
MDPI_40000000577553_01_pres.wav:
     ffprobe: MDPI_40000000577553_01_pres_ffprobe.xml
     purl: https://purl.dlib.indiana.edu/iudl/hydradam2/MDPI/40000000577553/20160208-165053/MDPI_40000000577553_01_pres.wav
MDPI_40000000300048_01_pres.mkv:
     ffprobe: MDPI_40000000300048_01_pres_ffprobe.xml
     purl: https://purl.dlib.indiana.edu/iudl/hydradam2/MDPI/40000000300048/20160213-082926/MDPI_40000000300048_01_pres.mkv
MDPI_40000000577553_01_prod.wav:
     ffprobe: MDPI_40000000577553_01_prod_ffprobe.xml
     purl: https://purl.dlib.indiana.edu/iudl/hydradam2/MDPI/40000000577553/20160208-165053/MDPI_40000000577553_01_prod.wav
MDPI_40000001192451_01_pres.wav:
     ffprobe: MDPI_40000001192451_01_pres_ffprobe.xml
     purl: https://purl.dlib.indiana.edu/iudl/hydradam2/MDPI/40000001192451/20160208-174611/MDPI_40000001192451_01_pres.wav
MDPI_40000001229337_02_prod.wav:
     ffprobe: MDPI_40000001229337_02_prod_ffprobe.xml
     purl: https://purl.dlib.indiana.edu/iudl/hydradam2/MDPI/40000001229337/20160208-175337/MDPI_40000001229337_02_prod.wav
MDPI_40000001229337_01_pres.wav:
     ffprobe: MDPI_40000001229337_01_pres_ffprobe.xml
     purl: https://purl.dlib.indiana.edu/iudl/hydradam2/MDPI/40000001229337/20160208-175337/MDPI_40000001229337_01_pres.wav
MDPI_40000001229337_02_access.mp4:
     ffprobe: MDPI_40000001229337_02_access_ffprobe.xml
     purl: https://purl.dlib.indiana.edu/iudl/hydradam2/MDPI/40000001229337/20160208-175337/MDPI_40000001229337_02_access.mp4
MDPI_40000000577553_02_prod.wav:
     ffprobe: MDPI_40000000577553_02_prod_ffprobe.xml
     purl: https://purl.dlib.indiana.edu/iudl/hydradam2/MDPI/40000000577553/20160208-165053/MDPI_40000000577553_02_prod.wav
MDPI_40000000577553_02_access.mp4:
     ffprobe: MDPI_40000000577553_02_access_ffprobe.xml
     purl: https://purl.dlib.indiana.edu/iudl/hydradam2/MDPI/40000000577553/20160208-165053/MDPI_40000000577553_02_access.mp4
MDPI_40000000300048_01_access.mp4:
     ffprobe: MDPI_40000000300048_01_access_ffprobe.xml
     purl: https://purl.dlib.indiana.edu/iudl/hydradam2/MDPI/40000000300048/20160213-082926/MDPI_40000000300048_01_access.mp4
MDPI_40000000543944_01_access.mp4:
     ffprobe: MDPI_40000000543944_01_access_ffprobe.xml
     purl: https://purl.dlib.indiana.edu/iudl/hydradam2/MDPI/40000000543944/20160208-163625/MDPI_40000000543944_01_access.mp4
MDPI_40000000543951_01_pres.wav:
     ffprobe: MDPI_40000000543951_01_pres_ffprobe.xml
     purl: https://purl.dlib.indiana.edu/iudl/hydradam2/MDPI/40000000543951/20160208-163626/MDPI_40000000543951_01_pres.wav
MDPI_40000000054496_01_prod.wav:
     ffprobe: MDPI_40000000054496_01_prod_ffprobe.xml
     purl: https://purl.dlib.indiana.edu/iudl/hydradam2/MDPI/40000000054496/20160213-082528/MDPI_40000000054496_01_prod.wav
MDPI_40000000543951_01_prod.wav:
     ffprobe: MDPI_40000000543951_01_prod_ffprobe.xml
     purl: https://purl.dlib.indiana.edu/iudl/hydradam2/MDPI/40000000543951/20160208-163626/MDPI_40000000543951_01_prod.wav
MDPI_40000000054496_01_access.mp4:
     ffprobe: MDPI_40000000054496_01_access_ffprobe.xml
     purl: https://purl.dlib.indiana.edu/iudl/hydradam2/MDPI/40000000054496/20160213-082528/MDPI_40000000054496_01_access.mp4
MDPI_40000001229337_01_prod.wav:
     ffprobe: MDPI_40000001229337_01_prod_ffprobe.xml
     purl: https://purl.dlib.indiana.edu/iudl/hydradam2/MDPI/40000001229337/20160208-175337/MDPI_40000001229337_01_prod.wav
MDPI_40000000613028_01_access.mp4:
     ffprobe: MDPI_40000000613028_01_access_ffprobe.xml
     purl: https://purl.dlib.indiana.edu/iudl/hydradam2/MDPI/40000000613028/20160208-165806/MDPI_40000000613028_01_access.mp4
MDPI_40000000613010_01_pres.wav:
     ffprobe: MDPI_40000000613010_01_pres_ffprobe.xml
     purl: https://purl.dlib.indiana.edu/iudl/hydradam2/MDPI/40000000613010/20160208-165803/MDPI_40000000613010_01_pres.wav
MDPI_40000000613036_01_access.mp4:
     ffprobe: MDPI_40000000613036_01_access_ffprobe.xml
     purl: https://purl.dlib.indiana.edu/iudl/hydradam2/MDPI/40000000613036/20160208-165808/MDPI_40000000613036_01_access.mp4
MDPI_40000000613010_01_prod.wav:
     ffprobe: MDPI_40000000613010_01_prod_ffprobe.xml
     purl: https://purl.dlib.indiana.edu/iudl/hydradam2/MDPI/40000000613010/20160208-165803/MDPI_40000000613010_01_prod.wav
MDPI_40000000613036_01_prod.wav:
     ffprobe: MDPI_40000000613036_01_prod_ffprobe.xml
     purl: https://purl.dlib.indiana.edu/iudl/hydradam2/MDPI/40000000613036/20160208-165808/MDPI_40000000613036_01_prod.wav
MDPI_40000000613028_01_prod.wav:
     ffprobe: MDPI_40000000613028_01_prod_ffprobe.xml
     purl: https://purl.dlib.indiana.edu/iudl/hydradam2/MDPI/40000000613028/20160208-165806/MDPI_40000000613028_01_prod.wav
40000000054496_20160213-082528/tagmanifest-md5.txt0000600000175000017500000000021612724061060020034 0ustar  dlpiercedlpiercec2d0e1ad522732bb1589775fcd930df6  bagit.txt
bf06fc00186cf8f3f78e7a2e64b9cccb  manifest-md5.txt
c63bc619539c39e2f453f20d732db70c  bag-info.txt
40000000054496_20160213-082528/MDPI_40000000054496_01_prod_ffprobe.xml0000600000175000017500000000353512724061060022256 0ustar  dlpiercedlpierce<?xml version="1.0" encoding="UTF-8"?>
<ffprobe>
    <streams>
        <stream index="0" codec_name="pcm_s16le" codec_long_name="PCM signed 16-bit little-endian" codec_type="audio" codec_time_base="1/44100" codec_tag_string="[1][0][0][0]" codec_tag="0x0001" sample_fmt="s16" sample_rate="44100" channels="2" bits_per_sample="16" r_frame_rate="0/0" avg_frame_rate="0/0" time_base="1/44100" duration_ts="335446016" duration="7606.485624" bit_rate="1411200">
            <disposition default="0" dub="0" original="0" comment="0" lyrics="0" karaoke="0" forced="0" hearing_impaired="0" visual_impaired="0" clean_effects="0" attached_pic="0"/>
        </stream>
    </streams>

    <format filename="/srv/scratch/transcoder_workspace_xcode-04_prod/MDPI_40000000054496.downloading/data/MDPI_40000000054496_01_prod.wav" nb_streams="1" nb_programs="0" format_name="wav" format_long_name="WAV / WAVE (Waveform Audio)" duration="7606.485624" size="1352884274" bit_rate="1422874" probe_score="99">
        <tag key="IARL" value="Indiana University-Bloomington. William and Gayle Cook Music Library."/>
        <tag key="originator_reference" value="MDPI_40000000054496_01_prod"/>
        <tag key="title" value="PROGRAM 001995 001996 NO 000642"/>
        <tag key="comment" value="Indiana University-Bloomington. William and Gayle Cook Music Library. DAT .I3972 96-3-21. File use: Production Master. MDPI_40000000054496_01_prod"/>
        <tag key="encoded_by" value="Memnon Archiving Services Inc."/>
        <tag key="date" value="2015-12-04"/>
        <tag key="creation_time" value="02:15:02"/>
        <tag key="time_reference" value="0"/>
        <tag key="coding_history" value="A=PCM,F=48000,T=Sony PCM-7040;SN51362
A=PCM,F=44100,W=16,M=stereo,T=Lynx AES16e 01+02;2.22;BL-UITS-DCWS003;D/D
A=PCM, F=44100, W=16, M=stereo, T=NoaMediaButler Lib;1.0.0.41;D/D

"/>
    </format>
</ffprobe>
40000000054496_20160213-082528/MDPI_40000000054496.xml0000644000175000017500000000446312724061060017240 0ustar  dlpiercedlpierce<?xml version="1.0" encoding="utf-8"?>
<IU xmlns:xsi="http://www.w3.org/2001/XMLSchema-instance" xmlns:xsd="http://www.w3.org/2001/XMLSchema">
  <Carrier xsi:type="DATCarrier" type="DAT">
    <Identifier>DAT .I3972 96-3-21</Identifier>
    <original_identifier>DAT .I3972 96-3-21</original_identifier> 
    <Barcode>40000000054496</Barcode>
    <definition>definition TEST</definition>
    <PhysicalCondition />
    <Parts>
      <DigitizingEntity>Memnon Archiving Services Inc</DigitizingEntity>
      <digitized_by_entity>Memnon Archiving Services Inc</digitized_by_entity>
      <digitized_by_staff> digitized_by_staff TEST</digitized_by_staff>
      <digitization_comments>digitization_comments TEST</digitization_comments>
      <original_media_damage>original_media_damage TEST</original_media_damage>
      <original_media_preservation_problem>original_media_preservation_problem TEST</original_media_preservation_problem>
      <Part Side="1">
        <Ingest xsi:type="DatIngest">
          <Date>2015-12-03</Date>
          <DigitStatus>OK</DigitStatus>
          <Created_by>comadder</Created_by>
          <Player_serial_number>51362</Player_serial_number>
          <Player_manufacturer>Sony</Player_manufacturer>
          <Player_model>PCM-7040</Player_model>
          <Extraction_workstation>NoaML-01</Extraction_workstation>
          <tape_playback_calibration_used>tape_playback_calibration_used TEST</tape_playback_calibration_used>
          <BLER>
            <Channel>
              <ID>1</ID>
              <Average>1.36</Average>
              <Sum>8932</Sum>
              <StandardDeviation>4.55</StandardDeviation>
            </Channel>
            <Channel>
              <ID>2</ID>
              <Average>1.84</Average>
              <Sum>12068</Sum>
              <StandardDeviation>4.4</StandardDeviation>
            </Channel>
          </BLER>
        </Ingest>
        <ManualCheck>No</ManualCheck>
        <QCStatus>OK</QCStatus>
        <Files>
          <File>
            <FileName>MDPI_40000000054496_01_pres.wav</FileName>
            <CheckSum>A0F9E4C05B1307788734229C3023F191</CheckSum>
          </File>
          <File>
            <FileName>MDPI_40000000054496_01_prod.wav</FileName>
            <CheckSum>7892355550C1105C0144D95EC7D3820F</CheckSum>
          </File>
          <File>
            <FileName>MDPI_40000000054496_01_access.mp4</FileName>
            <CheckSum>F4C3088D835D35D8741551CF4E8977F0</CheckSum>
          </File>
          <File>
            <FileName>MDPI_40000000054496_01_pres.eqm</FileName>
            <CheckSum />
          </File>
          <File>
            <FileName>MDPI_40000000054496_01_pres.wmf</FileName>
            <CheckSum />
          </File>
        </Files>
      </Part>
    </Parts>
    <Configuration xsi:type="ConfigurationDat">
      <SampleRate>44.1k</SampleRate>
      <CassetteLength>124</CassetteLength>
    </Configuration>
  </Carrier>
</IU>
40000000054496_20160213-082528/MDPI_40000000542243_pod.xml0000600000175000017500000001317012724061051020055 0ustar  dlpiercedlpierce<object xmlns:xsi="http://www.w3.org/2001/XMLSchema-instance">
      <basics>
        <format>Betacam</format>
        <files>1</files>
      </basics>
      <assignment>
        <unit>B-IULMIA</unit>
        <group_key>GR00107109</group_key>
        <picklist>IULMIA Betacam SP</picklist>
        <bin>40000000005316</bin>
        <batch>M-0004-BSP</batch>
        <spreadsheet>IULMIA-shipment-to-MDPI_2015-09-21 - processed for import.csv</spreadsheet>
      </assignment>
      <details>
        <id>139420</id>
        <title>"Brain" Cam 1 Tape 1</title>
        <title_control_number />
        <home_location />
        <call_number>30000149090791|</call_number>
        <iucat_barcode>30000149090791</iucat_barcode>
        <format>Betacam</format>
        <collection_identifier />
        <mdpi_barcode>40000000542243</mdpi_barcode>
        <has_ephemera>false</has_ephemera>
        <created_at>2015-10-12T09:23:28-04:00</created_at>
        <updated_at>2016-02-19T11:58:01-05:00</updated_at>
        <author>Creator: |Contributor: |Publisher: AIT</author>
        <catalog_key />
        <collection_name />
        <generation>Unknown</generation>
        <oclc_number />
        <other_copies>false</other_copies>
        <year>1993</year>
        <group_position>1</group_position>
        <ephemera_returned>false</ephemera_returned>
        <staging_requested>false</staging_requested>
        <staged>false</staged>
        <digital_start>2016-01-19T00:59:17-05:00</digital_start>
        <staging_request_timestamp xsi:nil="true" />
        <audio>false</audio>
        <video>true</video>
        <memnon_qc_completed>true</memnon_qc_completed>
        <billed>true</billed>
        <date_billed>2016-02-19T11:47:19-05:00</date_billed>
        <spread_sheet_filename>DELIVERY 14-0005 - BSP - 01_31_2016.xlsx</spread_sheet_filename>
        <group_total>1</group_total>
        <carrier_stream_index>GR00107109_1_1</carrier_stream_index>
        <current_workflow_status>Binned</current_workflow_status>
        <workflow_statuses>
          <workflow_status>
            <id>286002</id>
            <created_at>2015-10-12T09:23:28-04:00</created_at>
            <updated_at>2015-10-12T09:23:28-04:00</updated_at>
            <user>pfeaster</user>
            <has_ephemera>false</has_ephemera>
            <ephemera_returned>false</ephemera_returned>
            <ephemera_okay>false</ephemera_okay>
            <name>Unassigned</name>
            <sequence_index>1</sequence_index>
            <workflow_note />
          </workflow_status>
          <workflow_status>
            <id>286003</id>
            <created_at>2015-10-12T09:23:28-04:00</created_at>
            <updated_at>2015-10-12T09:23:28-04:00</updated_at>
            <user>pfeaster</user>
            <has_ephemera>false</has_ephemera>
            <ephemera_returned>false</ephemera_returned>
            <ephemera_okay>false</ephemera_okay>
            <name>On Pick List</name>
            <sequence_index>2</sequence_index>
            <workflow_note />
          </workflow_status>
          <workflow_status>
            <id>288874</id>
            <created_at>2015-10-14T14:17:03-04:00</created_at>
            <updated_at>2015-10-14T14:17:03-04:00</updated_at>
            <user>hpangle</user>
            <has_ephemera>false</has_ephemera>
            <ephemera_returned>false</ephemera_returned>
            <ephemera_okay>false</ephemera_okay>
            <name>Binned</name>
            <sequence_index>4</sequence_index>
            <workflow_note />
          </workflow_status>
        </workflow_statuses>
        <notes>
          <note>
            <id>41535</id>
            <body>Notes on case: HTT</body>
            <user>pfeaster</user>
            <created_at>2015-10-12T09:23:28-04:00</created_at>
            <updated_at>2015-10-12T09:23:28-04:00</updated_at>
            <export>false</export>
          </note>
          <note>
            <id>41536</id>
            <body>Notes on box:</body>
            <user>pfeaster</user>
            <created_at>2015-10-12T09:23:28-04:00</created_at>
            <updated_at>2015-10-12T09:23:28-04:00</updated_at>
            <export>false</export>
          </note>
          <note>
            <id>41537</id>
            <body>Audio Channel:</body>
            <user>pfeaster</user>
            <created_at>2015-10-12T09:23:28-04:00</created_at>
            <updated_at>2015-10-12T09:23:28-04:00</updated_at>
            <export>false</export>
          </note>
          <note>
            <id>41538</id>
            <body>Condition: Minor Stepping</body>
            <user>pfeaster</user>
            <created_at>2015-10-12T09:23:28-04:00</created_at>
            <updated_at>2015-10-12T09:23:28-04:00</updated_at>
            <export>false</export>
          </note>
        </notes>
        <condition_statuses />
      </details>
      <technical_metadata>
        <format>Betacam</format>
        <files>1</files>
        <format_version>SP</format_version>
        <pack_deformation>None</pack_deformation>
        <cassette_size>small</cassette_size>
        <recording_standard>NTSC</recording_standard>
        <format_duration>30</format_duration>
        <tape_stock_brand>3M </tape_stock_brand>
        <image_format>4:3</image_format>
        <preservation_problems />
      </technical_metadata>
      <digital_provenance>
        <digitizing_entity>Memnon Archiving Services Inc</digitizing_entity>
        <comments />
        <cleaning_date xsi:nil="true" />
        <baking xsi:nil="true" />
        <repaired>false</repaired>
        <cleaning_comment />
        <digitization_time />
        <digital_files>
        </digital_files>
      </digital_provenance>
    </object>40000000054496_20160213-082528/MDPI_40000000054496_01_pres_ffprobe.xml0000600000175000017500000000353712724061060022265 0ustar  dlpiercedlpierce<?xml version="1.0" encoding="UTF-8"?>
<ffprobe>
    <streams>
        <stream index="0" codec_name="pcm_s16le" codec_long_name="PCM signed 16-bit little-endian" codec_type="audio" codec_time_base="1/44100" codec_tag_string="[1][0][0][0]" codec_tag="0x0001" sample_fmt="s16" sample_rate="44100" channels="2" bits_per_sample="16" r_frame_rate="0/0" avg_frame_rate="0/0" time_base="1/44100" duration_ts="335446016" duration="7606.485624" bit_rate="1411200">
            <disposition default="0" dub="0" original="0" comment="0" lyrics="0" karaoke="0" forced="0" hearing_impaired="0" visual_impaired="0" clean_effects="0" attached_pic="0"/>
        </stream>
    </streams>

    <format filename="/srv/scratch/transcoder_workspace_xcode-04_prod/MDPI_40000000054496.downloading/data/MDPI_40000000054496_01_pres.wav" nb_streams="1" nb_programs="0" format_name="wav" format_long_name="WAV / WAVE (Waveform Audio)" duration="7606.485624" size="1352884274" bit_rate="1422874" probe_score="99">
        <tag key="IARL" value="Indiana University-Bloomington. William and Gayle Cook Music Library."/>
        <tag key="originator_reference" value="MDPI_40000000054496_01_pres"/>
        <tag key="title" value="PROGRAM 001995 001996 NO 000642"/>
        <tag key="comment" value="Indiana University-Bloomington. William and Gayle Cook Music Library. DAT .I3972 96-3-21. File use: Preservation Master. MDPI_40000000054496_01_pres"/>
        <tag key="encoded_by" value="Memnon Archiving Services Inc."/>
        <tag key="date" value="2015-12-04"/>
        <tag key="creation_time" value="02:15:02"/>
        <tag key="time_reference" value="0"/>
        <tag key="coding_history" value="A=PCM,F=48000,T=Sony PCM-7040;SN51362
A=PCM,F=44100,W=16,M=stereo,T=Lynx AES16e 01+02;2.22;BL-UITS-DCWS003;D/D
A=PCM, F=44100, W=16, M=stereo, T=NoaMediaButler Lib;1.0.0.41;D/D

"/>
    </format>
</ffprobe>
40000000054496_20160213-082528/MDPI_40000000054496_01_access_ffprobe.xml0000600000175000017500000000330212724061060022543 0ustar  dlpiercedlpierce<?xml version="1.0" encoding="UTF-8"?>
<ffprobe>
    <streams>
        <stream index="0" codec_name="aac" codec_long_name="AAC (Advanced Audio Coding)" profile="LC" codec_type="audio" codec_time_base="1/44100" codec_tag_string="mp4a" codec_tag="0x6134706d" sample_fmt="fltp" sample_rate="44100" channels="2" channel_layout="stereo" bits_per_sample="0" r_frame_rate="0/0" avg_frame_rate="0/0" time_base="1/44100" start_pts="-2048" start_time="-0.046440" duration_ts="335448064" duration="7606.532063" bit_rate="192000" nb_frames="327586">
            <disposition default="1" dub="0" original="0" comment="0" lyrics="0" karaoke="0" forced="0" hearing_impaired="0" visual_impaired="0" clean_effects="0" attached_pic="0"/>
            <tag key="language" value="und"/>
            <tag key="handler_name" value="SoundHandler"/>
        </stream>
    </streams>

    <format filename="/srv/scratch/transcoder_workspace_xcode-04_prod/MDPI_40000000054496.downloading/data/MDPI_40000000054496_01_access.mp4" nb_streams="1" nb_programs="0" format_name="mov,mp4,m4a,3gp,3g2,mj2" format_long_name="QuickTime / MOV" start_time="-0.046440" duration="7606.533000" size="183868943" bit_rate="193380" probe_score="100">
        <tag key="major_brand" value="isom"/>
        <tag key="minor_version" value="512"/>
        <tag key="compatible_brands" value="isomiso2mp41"/>
        <tag key="title" value="PROGRAM 001995 001996 NO 000642"/>
        <tag key="date" value="2015-12-04"/>
        <tag key="encoder" value="Lavf56.25.101"/>
        <tag key="comment" value="Indiana University-Bloomington. William and Gayle Cook Music Library. DAT .I3972 96-3-21. File use: Production Master. MDPI_40000000054496_01_prod"/>
    </format>
</ffprobe>
40000000054496_20160213-082528/MDPI_40000000542243_mods.xml0000600000175000017500000000246312724061051020240 0ustar  dlpiercedlpierce<?xml version="1.0" encoding="UTF-8"?>
<mods xmlns:xsi="http://www.w3.org/2001/XMLSchema-instance" xmlns="http://www.loc.gov/mods/v3" version="3.5" xsi:schemaLocation="http://www.loc.gov/mods/v3 http://www.loc.gov/standards/mods/v3/mods-3-5.xsd">
  <titleInfo>
    <title>"Brain" Cam 1 Tape 1</title>
  </titleInfo>
  <name type="personal" usage="primary">
    <namePart>Creator: |Contributor: |Publisher: AIT</namePart>
  </name>
  <originInfo>
    <dateIssued>1993</dateIssued>
  </originInfo>
  <typeOfResource>moving image</typeOfResource>
  <physicalDescription>
    <form authority="gmd">videorecording</form>
    <form authority="marcsmd">videocassette</form>
  </physicalDescription>
  <note displayLabel="system details">Betacam</note>
  <identifier type="local" displayLabel="Unit">B-IULMIA</identifier>
  <identifier type="local" displayLabel="Call Number">30000149090791|</identifier>
  <identifier type="local" displayLabel="Collection Identifier"/>
  <identifier type="local" displayLabel="MDPI Barcode">40000000542243</identifier>
  <recordInfo>
    <recordCreationDate encoding="iso8601">2015-10-12T09:23:28-04:00</recordCreationDate>
    <recordChangeDate encoding="iso8601">2016-02-19T11:58:01-05:00</recordChangeDate>
    <recordIdentifier source="MDPI">40000000542243</recordIdentifier>
  </recordInfo>
</mods>
40000000054496_20160213-082528/README.txt0000600000175000017500000000474112724061060016013 0ustar  dlpiercedlpierceIndiana University
Media Digitization and Preservation Initiative (MDPI)
Submission Information Package - Preservation and Production
------------------------------------------------------------

The following files are included in this package:
  data/generated/README.txt - this file
  data/MDPI_40000000054496.xml - Metadata from digitizing facility (includes digiprov and original MD5s)
  data/MDPI_40000000054496_01_access.mp4 - Master access file for sequence 01
  data/MDPI_40000000054496_01_pres.eqm - Master preservation file for sequence 01
  data/MDPI_40000000054496_01_pres.wav - Master preservation file for sequence 01
  data/MDPI_40000000054496_01_pres.wmf - Master preservation file for sequence 01
  data/MDPI_40000000054496_01_prod.wav - Master production file for sequence 01
  data/generated/MDPI_40000000054496_01_access_ffprobe.xml - Technical metadata for access master file sequence 01; generated by ffprobe
  data/generated/MDPI_40000000054496_01_high.mp4 - Streaming derivative for sequence 01 at high quality
  data/generated/MDPI_40000000054496_01_high_ffprobe.xml - Technical metadata for (unknown-use) master file sequence 01; generated by ffprobe
  data/generated/MDPI_40000000054496_01_med.mp4 - Streaming derivative for sequence 01 at med quality
  data/generated/MDPI_40000000054496_01_med_ffprobe.xml - Technical metadata for (unknown-use) master file sequence 01; generated by ffprobe
  data/generated/MDPI_40000000054496_01_pres_ffprobe.xml - Technical metadata for preservation master file sequence 01; generated by ffprobe
  data/generated/MDPI_40000000054496_01_prod_audioinspector_bad.xml - AudioInspector quality analysis for production master file sequence 01.  Quality estimate: bad.
  data/generated/MDPI_40000000054496_01_prod_ffprobe.xml - Technical metadata for production master file sequence 01; generated by ffprobe
  data/generated/MDPI_40000000054496_group.txt - Physical object group information
  data/generated/MDPI_40000000054496_mods.xml - Descriptive metadata for this object in MODS format.
  data/generated/MDPI_40000000054496_pod.xml - Data dump of the POD record for this object.

Please note:  the physical format metadata stored in the POD dump was
an estimate prior to digitization.  The physical format metadata from
the digitizing facility accurately represents the physical object and
should be used in any analysis.

Unit information in the .mkv and .mov header for video files may be
incorrect if the text is 'Archives of African American Music and
Culture.
